<svg width="256" height="256" viewBox="0 0 256 256" fill="none" xmlns="http://www.w3.org/2000/svg">
  <defs>
    <linearGradient id="brand-stroke" x1="40" y1="28" x2="206" y2="228" gradientUnits="userSpaceOnUse">
      <stop stop-color="#22A7E8"/>
      <stop offset="0.55" stop-color="#5E2CA5"/>
      <stop offset="1" stop-color="#FFD400"/>
    </linearGradient>
    <linearGradient id="brand-fill" x1="54" y1="42" x2="202" y2="212" gradientUnits="userSpaceOnUse">
      <stop stop-color="#121B30" stop-opacity="0.96"/>
      <stop offset="1" stop-color="#0A101C" stop-opacity="0.92"/>
    </linearGradient>
    <filter id="brand-shadow" x="0" y="0" width="256" height="256" filterUnits="userSpaceOnUse" color-interpolation-filters="sRGB">
      <feFlood flood-opacity="0" result="BackgroundImageFix"/>
      <feColorMatrix in="SourceAlpha" type="matrix" values="0 0 0 0 0 0 0 0 0 0 0 0 0 0 0 0 0 0 127 0" result="hardAlpha"/>
      <feOffset dy="10"/>
      <feGaussianBlur stdDeviation="12"/>
      <feComposite in2="hardAlpha" operator="out"/>
      <feColorMatrix type="matrix" values="0 0 0 0 0.0196078 0 0 0 0 0.0392157 0 0 0 0 0.0784314 0 0 0 0.42 0"/>
      <feBlend mode="normal" in2="BackgroundImageFix" result="effect1_dropShadow_0_1"/>
      <feBlend mode="normal" in="SourceGraphic" in2="effect1_dropShadow_0_1" result="shape"/>
    </filter>
  </defs>
  <g filter="url(#brand-shadow)">
    <path d="M128 18L222.83 72.75V182.25L128 237L33.17 182.25V72.75L128 18Z" fill="url(#brand-fill)"/>
    <path d="M128 30L212.44 78.75V176.25L128 225L43.56 176.25V78.75L128 30Z" stroke="url(#brand-stroke)" stroke-width="8"/>
    <path d="M128 52L193.39 89.75V165.25L128 203L62.61 165.25V89.75L128 52Z" fill="#0E1628" fill-opacity="0.78" stroke="#FFFFFF" stroke-opacity="0.18"/>
    <path d="M86.5 86L128 144L168.5 86" stroke="url(#brand-stroke)" stroke-width="10" stroke-linecap="round" stroke-linejoin="round"/>
    <path d="M95.5 162L128 120L160.5 162" stroke="white" stroke-width="10" stroke-linecap="round" stroke-linejoin="round"/>
    <circle cx="128" cy="120" r="74" stroke="#FFFFFF" stroke-opacity="0.08" stroke-width="2"/>
  </g>
</svg>
